<?xml version="1.0" standalone="no"?>
<!DOCTYPE svg PUBLIC "-//W3C//DTD SVG 20010904//EN"
 "http://www.w3.org/TR/2001/REC-SVG-20010904/DTD/svg10.dtd">
<svg version="1.0" xmlns="http://www.w3.org/2000/svg"
 width="500.000000pt" height="500.000000pt" viewBox="0 0 500.000000 500.000000"
 preserveAspectRatio="xMidYMid meet">

<g transform="translate(0.000000,500.000000) scale(0.100000,-0.100000)"
fill="#000000" stroke="none">
<path d="M2352 3251 c-54 -9 -92 -37 -115 -84 -18 -36 -40 -47 -52 -28 -7 12
-118 48 -171 55 -55 8 -140 -4 -122 -16 9 -7 4 -8 -13 -4 -18 4 -29 1 -32 -9
-4 -9 -1 -12 9 -8 12 4 14 0 8 -23 -3 -16 -14 -35 -23 -43 -14 -12 -13 -13 9
-7 14 4 57 10 97 13 84 6 152 -11 222 -58 63 -43 128 -74 196 -94 123 -35 298
2 469 99 87 50 139 62 219 52 61 -8 159 -40 152 -49 -3 -4 -2 -5 1 -3 3 3 16
-5 28 -18 11 -12 20 -20 19 -18 -2 3 4 10 13 16 9 7 12 18 8 29 -7 18 -24 23
-24 7 0 -5 5 -10 10 -10 6 0 5 -6 -2 -14 -7 -8 -17 -11 -23 -8 -5 3 -4 7 4 10
8 3 7 8 -6 18 -17 13 -17 13 0 14 9 0 17 5 17 11 0 6 7 9 15 6 8 -4 17 -2 20
3 3 5 -12 7 -32 5 -33 -3 -36 -2 -20 10 16 11 16 13 1 19 -9 3 -21 3 -26 -1
-7 -3 -8 -1 -4 6 10 16 -72 49 -148 60 -76 11 -150 0 -223 -34 -31 -14 -58
-23 -60 -21 -3 2 -12 19 -21 37 -26 50 -64 72 -140 80 -81 10 -201 9 -260 0z
m306 -114 c6 -7 13 -25 16 -39 4 -24 0 -28 -42 -42 -68 -24 -224 -21 -280 4
-37 17 -43 23 -37 42 13 44 30 48 186 48 107 0 149 -3 157 -13z m-758 -11 c0
-2 -8 -10 -17 -17 -16 -13 -17 -12 -4 4 13 16 21 21 21 13z"/>
<path d="M2140 2900 c-25 -4 -81 -5 -126 -3 -67 5 -88 2 -126 -15 -35 -15 -46
-25 -43 -39 2 -10 4 -21 4 -25 1 -4 10 -10 22 -13 19 -6 19 -8 5 -24 -28 -31
-17 -36 13 -7 34 33 109 44 102 16 -1 -8 -6 -35 -10 -59 -6 -41 -11 -47 -61
-77 -30 -19 -61 -31 -67 -29 -7 2 -13 0 -13 -6 0 -17 -30 -41 -44 -36 -9 4
-12 0 -9 -12 2 -10 -5 -33 -16 -52 -32 -52 -28 -99 12 -136 45 -43 63 -46 164
-28 128 22 159 20 179 -10 15 -23 15 -27 -6 -70 -44 -90 -207 -196 -268 -174
-50 19 -8 104 81 164 28 19 45 35 36 35 -39 0 -163 -117 -175 -166 -10 -41 7
-75 48 -96 33 -17 44 -18 90 -9 28 7 66 21 85 32 37 23 40 20 18 -15 -9 -13
-17 -37 -18 -54 -1 -16 -5 -28 -8 -26 -6 4 -55 -58 -52 -66 1 -3 -6 -6 -15 -7
-9 -1 -42 -11 -72 -22 -53 -20 -53 -26 0 -21 21 2 22 0 11 -14 -7 -9 -10 -24
-6 -37 6 -18 4 -21 -13 -17 -11 3 -26 2 -33 -3 -9 -5 4 -7 33 -4 60 5 132 39
174 82 31 31 52 63 153 241 41 70 43 72 64 57 12 -8 25 -15 28 -15 4 0 10 29
14 64 8 69 15 76 76 76 24 0 27 -4 32 -47 3 -32 12 -53 27 -65 37 -30 43 -23
37 43 -5 39 -3 58 3 54 6 -3 10 -12 10 -19 0 -6 17 -29 39 -50 53 -52 102 -58
166 -22 l47 26 18 -23 c10 -12 52 -80 92 -151 89 -157 135 -206 220 -235 71
-24 107 -26 155 -9 34 13 44 28 17 28 -10 0 -6 8 13 25 15 13 23 25 16 25 -6
0 -15 -4 -18 -10 -3 -5 -14 -10 -23 -10 -14 0 -13 2 2 13 16 12 10 13 -40 9
-48 -3 -68 1 -108 22 -27 14 -54 22 -59 19 -6 -3 -7 -1 -3 5 3 6 -5 27 -18 46
-20 30 -40 68 -108 209 -11 24 0 42 67 107 l56 55 -5 -35 c-3 -19 -8 -60 -11
-90 -3 -30 -8 -70 -11 -87 -5 -28 -3 -34 17 -42 21 -7 33 0 99 63 41 39 101
93 133 120 56 49 71 76 43 76 -8 0 -56 -36 -107 -80 -50 -44 -96 -80 -102 -80
-6 0 -7 20 -4 53 21 181 21 187 0 187 -10 0 -37 -18 -58 -41 -22 -22 -61 -58
-87 -80 l-46 -39 5 42 c9 87 10 88 53 88 39 0 39 0 42 42 l3 43 48 1 c27 1 61
7 75 15 37 18 102 80 96 91 -3 4 0 8 5 8 6 0 11 8 11 18 0 10 3 22 6 25 10 10
16 98 8 116 -4 9 -8 23 -10 31 -2 8 -9 19 -17 25 -8 5 -15 13 -15 18 -1 4 -5
6 -8 5 -4 -2 -11 7 -15 20 -5 14 -27 31 -55 43 -39 18 -62 20 -167 17 l-122
-3 -27 -85 c-14 -47 -34 -111 -42 -142 -9 -32 -20 -58 -25 -58 -4 0 -13 19
-20 43 -60 209 -71 235 -99 240 -25 5 -102 1 -108 -5 -1 -2 -5 -84 -8 -183 -8
-225 -15 -305 -27 -305 -5 0 -9 9 -9 21 0 33 -38 79 -65 79 -23 0 -24 3 -27
83 l-3 82 -43 3 c-35 3 -45 8 -54 28 -9 20 -17 24 -35 19 -24 -6 -33 7 -49 70
l-6 25 91 0 91 0 0 39 c0 32 -4 40 -22 44 -47 12 -145 15 -188 7z m-234 -29
c-4 -5 0 -12 6 -15 7 -3 2 -3 -11 0 -16 4 -21 3 -17 -5 4 -6 1 -11 -6 -11 -9
0 -9 -3 2 -10 8 -5 11 -10 5 -10 -5 0 -17 5 -25 10 -11 7 -11 10 -2 10 7 0 11
4 7 9 -3 6 3 14 12 20 22 13 36 14 29 2z m1161 -73 c15 -6 31 -11 36 -10 4 1
6 -1 5 -5 0 -5 8 -28 19 -51 25 -53 16 -96 -28 -138 -33 -31 -115 -46 -130
-23 -10 16 -12 222 -2 232 10 11 69 8 100 -5z m-437 -163 c18 -60 37 -116 42
-122 11 -14 65 -17 92 -7 9 3 21 24 27 46 l11 41 29 -33 c34 -37 43 -77 17
-72 -13 2 -18 -10 -24 -65 -11 -110 -16 -114 -48 -39 -36 85 -62 104 -138 101
l-58 -2 0 146 c0 88 4 140 9 131 5 -8 23 -64 41 -125z m587 73 c-3 -8 -6 -5
-6 6 -1 11 2 17 5 13 3 -3 4 -12 1 -19z m-1247 -123 c0 -8 -7 -15 -15 -15 -16
0 -20 12 -8 23 11 12 23 8 23 -8z m234 -26 c3 -17 6 -47 6 -66 0 -35 0 -35
-37 -28 -21 3 -44 13 -52 20 -12 12 -10 19 17 50 18 20 32 40 32 45 0 25 28 7
34 -21z m-269 -77 c-3 -3 -11 0 -18 7 -9 10 -8 11 6 5 10 -3 15 -9 12 -12z m9
-15 c71 -13 102 -37 49 -37 -15 0 -55 -7 -89 -15 -94 -22 -127 -3 -88 53 10
15 22 20 37 17 12 -3 53 -11 91 -18z m436 -39 c0 -25 -3 -29 -10 -18 -13 20
-13 50 0 50 6 0 10 -15 10 -32z m294 1 c41 -32 33 -43 -26 -35 -29 4 -55 9
-57 12 -7 6 31 44 44 44 7 0 24 -9 39 -21z m-465 -80 c-10 -20 -11 -20 -24 -2
-12 15 -11 19 3 24 25 10 33 0 21 -22z m491 -88 c0 -23 -52 -81 -73 -81 -29 0
-48 12 -62 41 -28 54 -23 59 60 59 67 0 75 -2 75 -19z"/>
<path d="M1815 2829 c-4 -6 -5 -12 -2 -15 2 -3 7 2 10 11 7 17 1 20 -8 4z"/>
<path d="M1850 2790 c0 -5 5 -10 10 -10 6 0 10 5 10 10 0 6 -4 10 -10 10 -5 0
-10 -4 -10 -10z"/>
<path d="M1786 2782 c-3 -5 0 -9 7 -10 7 0 23 -3 36 -6 13 -3 22 -4 20 -2 -2
3 -8 5 -14 6 -5 1 -18 6 -27 11 -9 5 -19 5 -22 1z"/>
<path d="M3308 1899 c12 -16 7 -29 -10 -29 -5 0 -7 4 -3 9 3 5 1 12 -4 15 -5
4 -8 -2 -7 -11 3 -21 16 -26 36 -13 13 8 12 12 -4 27 -14 12 -16 13 -8 2z"/>
</g>
</svg>
